<?xml version='1.0' encoding='utf-8'?>
<svg width="500.09mm" height="500.09mm" viewBox="-250.045 -250.045 500.09 500.09" version="1.1" xmlns="http://www.w3.org/2000/svg">
  <g transform="scale(1,-1)" stroke-linecap="round">
    <g fill="none" stroke="rgb(0,0,0)" stroke-width="0.09">
      <path d="M 250.0,-0.0 L 250.0,-0.0 A 250.0,250.0 0.0 0,0 -250.0,0.0 A 250.0,250.0 0.0 0,0 250.0,0.0 L 250.0,-0.0 A 250.0,250.0 0.0 0,1 -250.0,0.0 A 250.0,250.0 0.0 0,1 250.0,-0.0" />
      <path d="M 250.0,0.0 A 5.0,5.0 0.0 0,0 245.0,0.0 A 245.0,245.0 0.0 0,1 -245.0,0.0 A 245.0,245.0 0.0 0,1 245.0,-0.0 A 5.0,5.0 0.0 0,1 250.0,0.0 A 250.0,250.0 0.0 0,0 -250.0,0.0 A 250.0,250.0 0.0 0,0 250.0,0.0" />
      <path d="M 245.0,0.0 A 5.0,5.0 0.0 0,1 250.0,0.0 A 250.0,250.0 0.0 0,1 -250.0,0.0 A 250.0,250.0 0.0 0,1 250.0,-0.0 A 5.0,5.0 0.0 0,0 245.0,0.0 A 245.0,245.0 0.0 0,0 -245.0,0.0 A 245.0,245.0 0.0 0,0 245.0,0.0" />
      <path d="M 245.0,-0.0 A 245.0,245.0 0.0 0,0 -245.0,0.0 A 245.0,245.0 0.0 0,0 245.0,0.0 M 118.75,0.0 A 118.75,118.75 0.0 0,1 -118.75,0.0 A 118.75,118.75 0.0 0,1 118.75,-0.0" />
      <path d="M 245.0,0.0 A 245.0,245.0 0.0 0,1 -245.0,0.0 A 245.0,245.0 0.0 0,1 245.0,-0.0 M 118.75,-0.0 A 118.75,118.75 0.0 0,0 -118.75,0.0 A 118.75,118.75 0.0 0,0 118.75,0.0" />
      <path d="M 118.75,-0.0 A 118.75,118.75 0.0 0,0 -118.75,0.0 A 118.75,118.75 0.0 0,0 118.75,0.0 L 118.75,-0.0 A 118.75,118.75 0.0 0,1 -118.75,0.0 A 118.75,118.75 0.0 0,1 118.75,-0.0 L 118.75,-0.0" />
      <path d="M 118.75,-0.0 L 118.75,-0.0 A 118.75,118.75 0.0 0,0 -118.75,0.0 A 118.75,118.75 0.0 0,0 118.75,0.0 L 118.75,-0.0 A 118.75,118.75 0.0 0,1 -118.75,0.0 A 118.75,118.75 0.0 0,1 118.75,-0.0" />
      <path d="M 118.75,-0.0 A 118.75,118.75 0.0 0,0 -118.75,0.0 A 118.75,118.75 0.0 0,0 118.75,0.0 M 47.975,0.0 A 47.975,47.975 0.0 0,1 -47.975,0.0 A 47.975,47.975 0.0 0,1 47.975,-0.0" />
      <path d="M 118.75,0.0 A 118.75,118.75 0.0 0,1 -118.75,0.0 A 118.75,118.75 0.0 0,1 118.75,-0.0 M 47.975,-0.0 A 47.975,47.975 0.0 0,0 -47.975,0.0 A 47.975,47.975 0.0 0,0 47.975,0.0" />
      <path d="M 47.975,0.0 A 47.975,47.975 0.0 0,1 -47.975,0.0 A 47.975,47.975 0.0 0,1 47.975,-0.0 L 47.975,-0.0 A 47.975,47.975 0.0 0,0 -47.975,0.0 A 47.975,47.975 0.0 0,0 47.975,0.0 L 47.975,-0.0" />
      <path d="M 47.5,-0.0 A 47.5,47.5 0.0 0,0 -47.5,0.0 A 47.5,47.5 0.0 0,0 47.5,0.0 L 47.5,-0.0 A 47.5,47.5 0.0 0,1 -47.5,0.0 A 47.5,47.5 0.0 0,1 47.5,-0.0 L 47.5,-0.0" />
      <circle cx="0.0" cy="0.0" r="47.5" />
      <circle cx="0.0" cy="0.0" r="47.5" />
    </g>
  </g>
</svg>