<?xml version='1.0' encoding='utf-8'?>
<svg width="1000.09mm" height="2000.09mm" viewBox="-500.045 -1000.045 1000.09 2000.09" version="1.1" xmlns="http://www.w3.org/2000/svg">
  <g transform="scale(1,-1)" stroke-linecap="round">
    <g fill="none" stroke="rgb(0,0,0)" stroke-width="0.09">
      <path d="M -500.0,-1000.0 L -500.0,-1000.0 L -500.0,1000.0 L -500.0,1000.0 L -500.0,-1000.0" />
      <path d="M -500.0,-1000.0 L 500.0,-1000.0 L 500.0,-1000.0 L -500.0,-1000.0 L -500.0,-1000.0" />
      <path d="M -500.0,1000.0 L -500.0,-1000.0 L 500.0,-1000.0 L 500.0,1000.0 L -500.0,1000.0 M 5.0,-0.0 A 5.0,5.0 0.0 0,0 -5.0,0.0 A 5.0,5.0 0.0 0,0 5.0,0.0" />
      <path d="M 500.0,1000.0 L -500.0,1000.0 L -500.0,1000.0 L 500.0,1000.0 L 500.0,1000.0" />
      <path d="M -500.0,-1000.0 L -500.0,1000.0 L 500.0,1000.0 L 500.0,-1000.0 L -500.0,-1000.0 M 5.0,0.0 A 5.0,5.0 0.0 0,1 -5.0,0.0 A 5.0,5.0 0.0 0,1 5.0,-0.0" />
      <path d="M 500.0,-1000.0 L 500.0,-1000.0 L 500.0,1000.0 L 500.0,1000.0 L 500.0,-1000.0" />
      <path d="M 5.0,-0.0 L 5.0,-0.0 A 5.0,5.0 0.0 0,0 -5.0,0.0 A 5.0,5.0 0.0 0,0 5.0,0.0 L 5.0,-0.0 A 5.0,5.0 0.0 0,1 -5.0,0.0 A 5.0,5.0 0.0 0,1 5.0,-0.0" />
      <path d="M 5.0,-0.0 A 5.0,5.0 0.0 0,0 -5.0,0.0 A 5.0,5.0 0.0 0,0 5.0,0.0 L 5.0,-0.0 A 5.0,5.0 0.0 0,1 -5.0,0.0 A 5.0,5.0 0.0 0,1 5.0,-0.0 L 5.0,-0.0" />
      <circle cx="0.0" cy="0.0" r="5.0" />
      <circle cx="0.0" cy="0.0" r="5.0" />
    </g>
  </g>
</svg>