<?xml version='1.0' encoding='utf-8'?>
<svg width="1600.09mm" height="1280.09mm" viewBox="-800.045 -640.045 1600.09 1280.09" version="1.1" xmlns="http://www.w3.org/2000/svg">
  <g transform="scale(1,-1)" stroke-linecap="round">
    <g fill="none" stroke="rgb(0,0,0)" stroke-width="0.09">
      <path d="M 400.0,-0.0 A 400.0,400.0 0.0 0,0 -400.0,0.0 A 400.0,400.0 0.0 0,0 400.0,0.0 L 400.0,-0.0 A 400.0,400.0 0.0 0,1 -400.0,0.0 A 400.0,400.0 0.0 0,1 400.0,-0.0 L 400.0,-0.0" />
      <path d="M 400.0,0.0 A 400.0,400.0 0.0 0,1 -400.0,0.0 A 400.0,400.0 0.0 0,1 400.0,-0.0 M -151.846986,-275.065778 A 48.0,48.0 0.0 0,0 -247.846986,-275.065778 A 48.0,48.0 0.0 0,0 -151.846986,-275.065778 M -227.065778,-199.846986 A 48.000000000000014,48.000000000000014 0.0 0,0 -323.065778,-199.846986 A 48.000000000000014,48.000000000000014 0.0 0,0 -227.065778,-199.846986 M -57.065778,-323.359216 A 48.0,48.0 0.0 0,0 -153.065778,-323.359216 A 48.0,48.0 0.0 0,0 -57.065778,-323.359216 M 48.0,-340.0 A 48.0,48.0 0.0 0,0 -48.0,-340.0 A 48.0,48.0 0.0 0,0 48.0,-340.0 M -275.359216,-105.065778 A 48.0,48.0 0.0 0,0 -371.359216,-105.065778 A 48.0,48.0 0.0 0,0 -275.359216,-105.065778 M 153.065778,-323.359216 A 48.0,48.0 0.0 0,0 57.065778,-323.359216 A 48.0,48.0 0.0 0,0 153.065778,-323.359216 M 247.846986,-275.065778 A 48.0,48.0 0.0 0,0 151.846986,-275.065778 A 48.0,48.0 0.0 0,0 247.846986,-275.065778 M 323.065778,-199.846986 A 48.000000000000014,48.000000000000014 0.0 0,0 227.065778,-199.846986 A 48.000000000000014,48.000000000000014 0.0 0,0 323.065778,-199.846986 M 371.359216,-105.065778 A 48.0,48.0 0.0 0,0 275.359216,-105.065778 A 48.0,48.0 0.0 0,0 371.359216,-105.065778 M -292.0,0.0 A 48.0,48.0 0.0 0,0 -388.0,0.0 A 48.0,48.0 0.0 0,0 -292.0,0.0 M -275.359216,105.065778 A 48.0,48.0 0.0 0,0 -371.359216,105.065778 A 48.0,48.0 0.0 0,0 -275.359216,105.065778 M -227.065778,199.846986 A 48.000000000000014,48.000000000000014 0.0 0,0 -323.065778,199.846986 A 48.000000000000014,48.000000000000014 0.0 0,0 -227.065778,199.846986 M -151.846986,275.065778 A 48.0,48.0 0.0 0,0 -247.846986,275.065778 A 48.0,48.0 0.0 0,0 -151.846986,275.065778 M -57.065778,323.359216 A 48.0,48.0 0.0 0,0 -153.065778,323.359216 A 48.0,48.0 0.0 0,0 -57.065778,323.359216 M 60.0,-0.0 A 60.0,60.0 0.0 0,0 -60.0,0.0 A 60.0,60.0 0.0 0,0 60.0,0.0 M 388.0,-0.0 A 48.0,48.0 0.0 0,0 292.0,0.0 A 48.0,48.0 0.0 0,0 388.0,0.0 M 371.359216,105.065778 A 48.0,48.0 0.0 0,0 275.359216,105.065778 A 48.0,48.0 0.0 0,0 371.359216,105.065778 M 48.0,340.0 A 48.0,48.0 0.0 0,0 -48.0,340.0 A 48.0,48.0 0.0 0,0 48.0,340.0 M 153.065778,323.359216 A 48.0,48.0 0.0 0,0 57.065778,323.359216 A 48.0,48.0 0.0 0,0 153.065778,323.359216 M 323.065778,199.846986 A 48.000000000000014,48.000000000000014 0.0 0,0 227.065778,199.846986 A 48.000000000000014,48.000000000000014 0.0 0,0 323.065778,199.846986 M 247.846986,275.065778 A 48.0,48.0 0.0 0,0 151.846986,275.065778 A 48.0,48.0 0.0 0,0 247.846986,275.065778" />
      <path d="M 400.0,-0.0 A 400.0,400.0 0.0 0,0 -400.0,0.0 A 400.0,400.0 0.0 0,0 400.0,0.0 M -151.846986,-275.065778 A 48.0,48.0 0.0 0,1 -247.846986,-275.065778 A 48.0,48.0 0.0 0,1 -151.846986,-275.065778 M -227.065778,-199.846986 A 48.000000000000014,48.000000000000014 0.0 0,1 -323.065778,-199.846986 A 48.000000000000014,48.000000000000014 0.0 0,1 -227.065778,-199.846986 M -57.065778,-323.359216 A 48.0,48.0 0.0 0,1 -153.065778,-323.359216 A 48.0,48.0 0.0 0,1 -57.065778,-323.359216 M 48.0,-340.0 A 48.0,48.0 0.0 0,1 -48.0,-340.0 A 48.0,48.0 0.0 0,1 48.0,-340.0 M -275.359216,-105.065778 A 48.0,48.0 0.0 0,1 -371.359216,-105.065778 A 48.0,48.0 0.0 0,1 -275.359216,-105.065778 M 153.065778,-323.359216 A 48.0,48.0 0.0 0,1 57.065778,-323.359216 A 48.0,48.0 0.0 0,1 153.065778,-323.359216 M 247.846986,-275.065778 A 48.0,48.0 0.0 0,1 151.846986,-275.065778 A 48.0,48.0 0.0 0,1 247.846986,-275.065778 M 323.065778,-199.846986 A 48.000000000000014,48.000000000000014 0.0 0,1 227.065778,-199.846986 A 48.000000000000014,48.000000000000014 0.0 0,1 323.065778,-199.846986 M 371.359216,-105.065778 A 48.0,48.0 0.0 0,1 275.359216,-105.065778 A 48.0,48.0 0.0 0,1 371.359216,-105.065778 M -292.0,0.0 A 48.0,48.0 0.0 0,1 -388.0,0.0 A 48.0,48.0 0.0 0,1 -292.0,0.0 M -275.359216,105.065778 A 48.0,48.0 0.0 0,1 -371.359216,105.065778 A 48.0,48.0 0.0 0,1 -275.359216,105.065778 M -227.065778,199.846986 A 48.000000000000014,48.000000000000014 0.0 0,1 -323.065778,199.846986 A 48.000000000000014,48.000000000000014 0.0 0,1 -227.065778,199.846986 M -151.846986,275.065778 A 48.0,48.0 0.0 0,1 -247.846986,275.065778 A 48.0,48.0 0.0 0,1 -151.846986,275.065778 M -57.065778,323.359216 A 48.0,48.0 0.0 0,1 -153.065778,323.359216 A 48.0,48.0 0.0 0,1 -57.065778,323.359216 M 60.0,0.0 A 60.0,60.0 0.0 0,1 -60.0,0.0 A 60.0,60.0 0.0 0,1 60.0,-0.0 M 388.0,0.0 A 48.0,48.0 0.0 0,1 292.0,0.0 A 48.0,48.0 0.0 0,1 388.0,-0.0 M 371.359216,105.065778 A 48.0,48.0 0.0 0,1 275.359216,105.065778 A 48.0,48.0 0.0 0,1 371.359216,105.065778 M 48.0,340.0 A 48.0,48.0 0.0 0,1 -48.0,340.0 A 48.0,48.0 0.0 0,1 48.0,340.0 M 153.065778,323.359216 A 48.0,48.0 0.0 0,1 57.065778,323.359216 A 48.0,48.0 0.0 0,1 153.065778,323.359216 M 323.065778,199.846986 A 48.000000000000014,48.000000000000014 0.0 0,1 227.065778,199.846986 A 48.000000000000014,48.000000000000014 0.0 0,1 323.065778,199.846986 M 247.846986,275.065778 A 48.0,48.0 0.0 0,1 151.846986,275.065778 A 48.0,48.0 0.0 0,1 247.846986,275.065778" />
      <path d="M -151.846986,-275.065778 A 48.0,48.0 0.0 0,1 -247.846986,-275.065778 A 48.0,48.0 0.0 0,1 -151.846986,-275.065778 L -151.846986,-275.065778 A 48.0,48.0 0.0 0,0 -247.846986,-275.065778 A 48.0,48.0 0.0 0,0 -151.846986,-275.065778 L -151.846986,-275.065778" />
      <path d="M -227.065778,-199.846986 A 48.000000000000014,48.000000000000014 0.0 0,1 -323.065778,-199.846986 A 48.000000000000014,48.000000000000014 0.0 0,1 -227.065778,-199.846986 L -227.065778,-199.846986 A 48.000000000000014,48.000000000000014 0.0 0,0 -323.065778,-199.846986 A 48.000000000000014,48.000000000000014 0.0 0,0 -227.065778,-199.846986 L -227.065778,-199.846986" />
      <path d="M -57.065778,-323.359216 A 48.0,48.0 0.0 0,1 -153.065778,-323.359216 A 48.0,48.0 0.0 0,1 -57.065778,-323.359216 L -57.065778,-323.359216 A 48.0,48.0 0.0 0,0 -153.065778,-323.359216 A 48.0,48.0 0.0 0,0 -57.065778,-323.359216 L -57.065778,-323.359216" />
      <path d="M 48.0,-340.0 A 48.0,48.0 0.0 0,1 -48.0,-340.0 A 48.0,48.0 0.0 0,1 48.0,-340.0 L 48.0,-340.0 A 48.0,48.0 0.0 0,0 -48.0,-340.0 A 48.0,48.0 0.0 0,0 48.0,-340.0 L 48.0,-340.0" />
      <path d="M -275.359216,-105.065778 A 48.0,48.0 0.0 0,1 -371.359216,-105.065778 A 48.0,48.0 0.0 0,1 -275.359216,-105.065778 L -275.359216,-105.065778 A 48.0,48.0 0.0 0,0 -371.359216,-105.065778 A 48.0,48.0 0.0 0,0 -275.359216,-105.065778 L -275.359216,-105.065778" />
      <path d="M 153.065778,-323.359216 A 48.0,48.0 0.0 0,1 57.065778,-323.359216 A 48.0,48.0 0.0 0,1 153.065778,-323.359216 L 153.065778,-323.359216 A 48.0,48.0 0.0 0,0 57.065778,-323.359216 A 48.0,48.0 0.0 0,0 153.065778,-323.359216 L 153.065778,-323.359216" />
      <path d="M 247.846986,-275.065778 A 48.0,48.0 0.0 0,1 151.846986,-275.065778 A 48.0,48.0 0.0 0,1 247.846986,-275.065778 L 247.846986,-275.065778 A 48.0,48.0 0.0 0,0 151.846986,-275.065778 A 48.0,48.0 0.0 0,0 247.846986,-275.065778 L 247.846986,-275.065778" />
      <path d="M 323.065778,-199.846986 A 48.000000000000014,48.000000000000014 0.0 0,1 227.065778,-199.846986 A 48.000000000000014,48.000000000000014 0.0 0,1 323.065778,-199.846986 L 323.065778,-199.846986 A 48.000000000000014,48.000000000000014 0.0 0,0 227.065778,-199.846986 A 48.000000000000014,48.000000000000014 0.0 0,0 323.065778,-199.846986 L 323.065778,-199.846986" />
      <path d="M 371.359216,-105.065778 A 48.0,48.0 0.0 0,1 275.359216,-105.065778 A 48.0,48.0 0.0 0,1 371.359216,-105.065778 L 371.359216,-105.065778 A 48.0,48.0 0.0 0,0 275.359216,-105.065778 A 48.0,48.0 0.0 0,0 371.359216,-105.065778 L 371.359216,-105.065778" />
      <path d="M -292.0,0.0 A 48.0,48.0 0.0 0,1 -388.0,0.0 A 48.0,48.0 0.0 0,1 -292.0,0.0 L -292.0,0.0 A 48.0,48.0 0.0 0,0 -388.0,0.0 A 48.0,48.0 0.0 0,0 -292.0,0.0 L -292.0,0.0" />
      <path d="M -275.359216,105.065778 A 48.0,48.0 0.0 0,1 -371.359216,105.065778 A 48.0,48.0 0.0 0,1 -275.359216,105.065778 L -275.359216,105.065778 A 48.0,48.0 0.0 0,0 -371.359216,105.065778 A 48.0,48.0 0.0 0,0 -275.359216,105.065778 L -275.359216,105.065778" />
      <path d="M -227.065778,199.846986 A 48.000000000000014,48.000000000000014 0.0 0,1 -323.065778,199.846986 A 48.000000000000014,48.000000000000014 0.0 0,1 -227.065778,199.846986 L -227.065778,199.846986 A 48.000000000000014,48.000000000000014 0.0 0,0 -323.065778,199.846986 A 48.000000000000014,48.000000000000014 0.0 0,0 -227.065778,199.846986 L -227.065778,199.846986" />
      <path d="M -151.846986,275.065778 A 48.0,48.0 0.0 0,1 -247.846986,275.065778 A 48.0,48.0 0.0 0,1 -151.846986,275.065778 L -151.846986,275.065778 A 48.0,48.0 0.0 0,0 -247.846986,275.065778 A 48.0,48.0 0.0 0,0 -151.846986,275.065778 L -151.846986,275.065778" />
      <path d="M -57.065778,323.359216 A 48.0,48.0 0.0 0,1 -153.065778,323.359216 A 48.0,48.0 0.0 0,1 -57.065778,323.359216 L -57.065778,323.359216 A 48.0,48.0 0.0 0,0 -153.065778,323.359216 A 48.0,48.0 0.0 0,0 -57.065778,323.359216 L -57.065778,323.359216" />
      <path d="M 60.0,-0.0 L 60.0,-0.0 A 60.0,60.0 0.0 0,0 -60.0,0.0 A 60.0,60.0 0.0 0,0 60.0,0.0 L 60.0,-0.0 A 60.0,60.0 0.0 0,1 -60.0,0.0 A 60.0,60.0 0.0 0,1 60.0,-0.0" />
      <path d="M 388.0,0.0 A 48.0,48.0 0.0 0,1 292.0,0.0 A 48.0,48.0 0.0 0,1 388.0,-0.0 L 388.0,-0.0 A 48.0,48.0 0.0 0,0 292.0,0.0 A 48.0,48.0 0.0 0,0 388.0,0.0 L 388.0,-0.0" />
      <path d="M 371.359216,105.065778 A 48.0,48.0 0.0 0,1 275.359216,105.065778 A 48.0,48.0 0.0 0,1 371.359216,105.065778 L 371.359216,105.065778 A 48.0,48.0 0.0 0,0 275.359216,105.065778 A 48.0,48.0 0.0 0,0 371.359216,105.065778 L 371.359216,105.065778" />
      <path d="M 48.0,340.0 A 48.0,48.0 0.0 0,1 -48.0,340.0 A 48.0,48.0 0.0 0,1 48.0,340.0 L 48.0,340.0 A 48.0,48.0 0.0 0,0 -48.0,340.0 A 48.0,48.0 0.0 0,0 48.0,340.0 L 48.0,340.0" />
      <path d="M 153.065778,323.359216 A 48.0,48.0 0.0 0,1 57.065778,323.359216 A 48.0,48.0 0.0 0,1 153.065778,323.359216 L 153.065778,323.359216 A 48.0,48.0 0.0 0,0 57.065778,323.359216 A 48.0,48.0 0.0 0,0 153.065778,323.359216 L 153.065778,323.359216" />
      <path d="M 323.065778,199.846986 A 48.000000000000014,48.000000000000014 0.0 0,1 227.065778,199.846986 A 48.000000000000014,48.000000000000014 0.0 0,1 323.065778,199.846986 L 323.065778,199.846986 A 48.000000000000014,48.000000000000014 0.0 0,0 227.065778,199.846986 A 48.000000000000014,48.000000000000014 0.0 0,0 323.065778,199.846986 L 323.065778,199.846986" />
      <path d="M 247.846986,275.065778 A 48.0,48.0 0.0 0,1 151.846986,275.065778 A 48.0,48.0 0.0 0,1 247.846986,275.065778 L 247.846986,275.065778 A 48.0,48.0 0.0 0,0 151.846986,275.065778 A 48.0,48.0 0.0 0,0 247.846986,275.065778 L 247.846986,275.065778" />
      <path d="M 60.0,-0.0 A 60.0,60.0 0.0 0,0 -60.0,0.0 A 60.0,60.0 0.0 0,0 60.0,0.0 L 60.0,-0.0 A 60.0,60.0 0.0 0,1 -60.0,0.0 A 60.0,60.0 0.0 0,1 60.0,-0.0 L 60.0,-0.0" />
      <circle cx="0.0" cy="0.0" r="60.0" />
      <circle cx="0.0" cy="0.0" r="60.0" />
      <path d="M 530.0,-0.0 A 530.0,530.0 0.0 0,0 -530.0,0.0 A 530.0,530.0 0.0 0,0 530.0,0.0 L 530.0,-0.0 A 530.0,530.0 0.0 0,1 -530.0,0.0 A 530.0,530.0 0.0 0,1 530.0,-0.0 L 530.0,-0.0" />
      <path d="M 530.0,0.0 A 530.0,530.0 0.0 0,1 -530.0,0.0 A 530.0,530.0 0.0 0,1 530.0,-0.0 M 520.0,-0.0 A 520.0,520.0 0.0 0,0 -520.0,0.0 A 520.0,520.0 0.0 0,0 520.0,0.0" />
      <path d="M 530.0,-0.0 A 530.0,530.0 0.0 0,0 -530.0,0.0 A 530.0,530.0 0.0 0,0 530.0,0.0 M 520.0,0.0 A 520.0,520.0 0.0 0,1 -520.0,0.0 A 520.0,520.0 0.0 0,1 520.0,-0.0" />
      <path d="M 520.0,0.0 A 520.0,520.0 0.0 0,1 -520.0,0.0 A 520.0,520.0 0.0 0,1 520.0,-0.0 L 520.0,-0.0 A 520.0,520.0 0.0 0,0 -520.0,0.0 A 520.0,520.0 0.0 0,0 520.0,0.0 L 520.0,-0.0" />
      <path d="M -800.0,-640.0 L -800.0,-640.0 L -800.0,640.0 L -800.0,640.0 L -800.0,-640.0" />
      <path d="M 800.0,-640.0 L 800.0,-640.0 L 800.0,640.0 L 800.0,640.0 L 800.0,-640.0" />
      <path d="M -800.0,-640.0 L 800.0,-640.0 L 800.0,-640.0 L -800.0,-640.0 L -800.0,-640.0" />
      <path d="M 800.0,640.0 L -800.0,640.0 L -800.0,640.0 L 800.0,640.0 L 800.0,640.0" />
      <path d="M -800.0,-640.0 L -800.0,640.0 L 800.0,640.0 L 800.0,-640.0 L -800.0,-640.0" />
      <path d="M -800.0,640.0 L -800.0,-640.0 L 800.0,-640.0 L 800.0,640.0 L -800.0,640.0" />
    </g>
  </g>
</svg>